<?xml version="1.0" encoding="utf-8"?>
<svg width="209" height="209" viewBox="0 0 209 209" fill="none" xmlns="http://www.w3.org/2000/svg">
<g>
    <path d="M77.9 147.8V148.1L87.8 153.5V95L77.9 100.4V147.8Z" fill="#FA602D"/>
    <path d="M105.7 163.3V85.2L95.9 90.6V157.9L105.7 163.3Z" fill="#FA602D"/>
    <path d="M113.8 121.2L123.7 115.8V75.4L88.7 55.2L78.9 60.5999L113.8 80.8V121.2Z" fill="#FA602D"/>
    <path d="M131.8 111.3L141.6 105.9V65.5999L106.7 45.3999L96.8 50.7999L131.8 70.8999V70.9999V111.3Z" fill="#FA602D"/>
</g>

<g>
    <!-- <animateTransform attributeName="transform"
                          attributeType="XML"
                          type="rotate"
                          from="0 104.5 104.5"
                          to="360 104.5 104.5"
                          dur="20s"
                          repeatCount="indefinite"/> -->
    <path d="M47.8 36.0999L46.7 34.9L40.3 40.7999L36.4 36.7L41.6 31.7999L40.4 30.5L35.2 35.4L31.7 31.7L37.9 25.9L36.8 24.7L29.2 31.7999L40.1 43.4L47.8 36.0999Z" fill="#FA602D"/>
    <path d="M63.5 25.6001L65.1 24.6001L56.8 11.1001L54 12.8001L56.7 26.9001L45.3 18.1001L42.5 19.9001L50.9 33.4001L52.5 32.4001L45 20.2001L57.2 29.5001L58.8 28.5001L56 13.4001L63.5 25.6001Z" fill="#FA602D"/>
    <path d="M79.7 14.2C79 12.3 77.6 11.5 76.1 11.4C76.5 10.9 77.2 9.59998 76.6 7.89998C75.8 5.69998 73.7 4.39998 70.8 5.39998L63.8 7.89998L69.1 22.9L76.2 20.4C79.1 19.4 80.7 17.1 79.7 14.2ZM66.3 8.89998L71.5 7.09998C72.9 6.59998 74.3 6.79998 74.9 8.59998C75.5 10.4 74.6 11.4 73.2 11.9L68 13.7L66.3 8.89998ZM75.7 18.8L70.4 20.7L68.5 15.3L73.8 13.4C75.9 12.7 77.3 13.3 77.9 15C78.5 16.7 77.8 18.1 75.7 18.8Z" fill="#FA602D"/>
    <path d="M86.7 17.4999L85.8 11.3999L89.6 10.7999L95.3 16.0999L97.6 15.6999L91.9 10.2999C94.2 9.7999 96.1 7.9999 95.6 4.9999C95.1 1.7999 92.9 0.499896 89.5 0.999896L82.4 2.0999L84.8 17.7999L86.7 17.4999ZM89.8 2.6999C92.1 2.2999 93.5 3.1999 93.8 5.2999C94.1 7.3999 93.1 8.5999 90.8 8.9999L85.6 9.7999L84.6 3.4999L89.8 2.6999Z" fill="#FA602D"/>
    <path d="M104.1 10.8L110.5 11L112.4 16.1L114.4 16.2L108.4 0H106.9L99.9 15.7L101.9 15.8L104.1 10.8ZM107.5 2.9L109.9 9.3L104.8 9.1L107.5 2.9Z" fill="#FA602D"/>
    <path d="M123.1 18.1001C126.3 18.8001 128.5 17.7001 130 15.9001L128.8 14.6001C127.6 16.1001 125.9 17.0001 123.5 16.5001C120.5 15.9001 118.7 12.7001 119.5 9.10012C120.3 5.30012 123.2 3.30012 126.1 3.90012C128.5 4.40012 129.7 5.80012 130.3 7.70012L132 6.90012C131.4 4.90012 130 2.90012 126.5 2.20012C122.4 1.30012 118.6 3.90012 117.6 8.70012C116.6 13.2001 119 17.2001 123.1 18.1001Z" fill="#FA602D"/>
    <path d="M143.4 22.7999L135.3 19.5L137.4 14.3L144.1 16.9L144.7 15.4L138.1 12.7L140 7.99995L147.9 11.2L148.5 9.59995L138.9 5.69995L132.9 20.4L142.7 24.4L143.4 22.7999Z" fill="#FA602D"/>
    <path d="M158 24.7001L163.7 28.8L164.7 27.4L159 23.3L161.9 19.3L169 24.3L170 23L161.4 16.8L152.1 29.6L153.6 30.8L158 24.7001Z" fill="#FA602D"/>
    <path d="M167.9 43.0001C171 46.2001 175.9 46.1001 179.2 42.9001C182.5 39.7001 182.8 34.9001 179.7 31.6001C176.6 28.4001 171.7 28.5001 168.4 31.7001C165.1 35.0001 164.8 39.8001 167.9 43.0001ZM178.4 32.9001C180.8 35.4001 180.4 39.1001 177.8 41.6001C175.2 44.1001 171.5 44.3001 169.1 41.9001C166.7 39.4001 167.1 35.7001 169.7 33.2001C172.3 30.6001 176 30.4001 178.4 32.9001Z" fill="#FA602D"/>
    <path d="M176.6 53.1L181.8 49.8L183.9 53L181.3 60.4L182.6 62.4L185.2 55C186.7 56.8 189.1 57.8 191.7 56.2C194.4 54.4 194.7 51.9 192.8 49L188.9 43L175.5 51.6L176.6 53.1ZM188.6 45.4L191.4 49.8C192.7 51.8 192.4 53.3 190.7 54.5C188.9 55.6 187.4 55.2 186.1 53.2L183.3 48.8L188.6 45.4Z" fill="#FA602D"/>
    <path d="M201.523 65.998L186.682 71.7029L187.363 73.4763L202.205 67.7714L201.523 65.998Z" fill="#FA602D"/>
    <path d="M189.6 79.5999L203.6 76.5999L190.8 84.9999L191.2 86.7999L206.3 89.2999L192.3 92.2999L192.7 94.0999L208.3 90.7999L207.6 87.5999L193.4 85.3999L205.5 77.5999L204.8 74.3999L189.2 77.6999L189.6 79.5999Z" fill="#FA602D"/>
    <path d="M208.7 98.2L192.8 98.5V100.4L199 100.3L199.1 105.2C199.2 109.1 201 110.9 204.1 110.9C207.2 110.8 208.9 108.9 208.9 105.1L208.7 98.2ZM204 109C201.7 109 200.8 107.8 200.8 105.5L200.7 100.3L207 100.2L207.1 105.4C207.1 107.7 206.3 108.9 204 109Z" fill="#FA602D"/>
    <path d="M192.6 113.3L197.2 116.1L196.2 122.5L190.9 123.7L190.6 125.7L207.3 121.8L207.5 120.3L192.8 111.3L192.6 113.3ZM198.8 117L204.6 120.5L198 122L198.8 117Z" fill="#FA602D"/>
    <path d="M197.7 129.8C193.2 128.2 188.9 130.1 187.6 134C186.5 137 187.3 139.4 188.9 141.1L190.4 140.1C189.1 138.7 188.4 136.9 189.2 134.6C190.2 131.7 193.6 130.4 197.1 131.6C200.8 132.9 202.4 136 201.4 138.9C200.6 141.2 199 142.2 197.1 142.5L197.7 144.2C199.8 143.8 201.9 142.7 203.1 139.4C204.4 135.5 202.3 131.4 197.7 129.8Z" fill="#FA602D"/>
    <path d="M194.2 154.2L181.9 147.2L180.9 148.9L193.3 155.9L190.6 160.6L192 161.5L198.4 150.3L196.9 149.5L194.2 154.2Z" fill="#FA602D"/>
    <path d="M161 172.6L162.1 173.9L168.5 167.9L172.4 172.1L167.2 177L168.4 178.2L173.6 173.3L177.1 177L170.9 182.8L172 184.1L179.6 176.9L168.7 165.4L161 172.6Z" fill="#FA602D"/>
    <path d="M156.3 176.3L163.8 188.5L151.6 179.3L150 180.2L152.8 195.3L145.3 183.1L143.7 184.1L152 197.7L154.8 196L152.1 181.8L163.5 190.6L166.3 188.9L157.9 175.3L156.3 176.3Z" fill="#FA602D"/>
    <path d="M132.5 188.3C129.8 189.3 128.2 191.6 129.2 194.4C129.9 196.3 131.3 197.1 132.8 197.2C132.4 197.7 131.7 199 132.3 200.7C133.1 202.9 135.2 204.2 138.1 203.2L145.1 200.7L139.8 185.7L132.5 188.3ZM142.5 199.8L137.3 201.6C135.9 202.1 134.5 201.9 133.9 200.1C133.3 198.3 134.2 197.3 135.6 196.8L140.8 195L142.5 199.8ZM135 195.3C132.9 196 131.5 195.4 130.9 193.7C130.3 192 131 190.6 133.1 189.9L138.4 188L140.3 193.4L135 195.3Z" fill="#FA602D"/>
    <path d="M122.1 191.2L123 197.3L119.2 197.9L113.5 192.6L111.2 193L116.9 198.4C114.6 199 112.7 200.8 113.2 203.8C113.7 207 115.9 208.3 119.3 207.8L126.4 206.7L124 191L122.1 191.2ZM119 206C116.7 206.4 115.3 205.5 115 203.4C114.7 201.3 115.7 200.1 118 199.7L123.2 198.9L124.2 205.2L119 206Z" fill="#FA602D"/>
    <path d="M104.7 197.9L98.3 197.7L96.4 192.6L94.4 192.5L100.5 208.6H102L109 192.9L107 192.8L104.7 197.9ZM101.3 205.8L98.9 199.4L104 199.6L101.3 205.8Z" fill="#FA602D"/>
    <path d="M85.7 190.7C82.5 190 80.3 191.1 78.8 192.9L80 194.2C81.2 192.7 82.9 191.8 85.3 192.3C88.3 192.9 90.1 196.1 89.3 199.7C88.5 203.5 85.6 205.5 82.7 204.9C80.3 204.4 79.1 203 78.5 201.1L76.8 201.9C77.4 203.9 78.8 205.9 82.3 206.6C86.4 207.5 90.2 204.9 91.2 200.1C92.2 195.5 89.8 191.5 85.7 190.7Z" fill="#FA602D"/>
    <path d="M65.4 185.9L73.5 189.2L71.4 194.5L64.7 191.8L64.1 193.4L70.7 196.1L68.8 200.8L60.9 197.6L60.3 199.2L69.9 203.1L75.9 188.3L66.1 184.3L65.4 185.9Z" fill="#FA602D"/>
    <path d="M50.8 184.1L45.1 180L44.1 181.3L49.8 185.4L46.9 189.5L39.8 184.4L38.8 185.8L47.4 192L56.7 179.1L55.2 178L50.8 184.1Z" fill="#FA602D"/>
    <path d="M40.9 165.7C37.8 162.5 32.9 162.6 29.6 165.8C26.3 169 26 173.8 29.1 177.1C32.2 180.3 37.1 180.2 40.4 177C43.7 173.8 44 168.9 40.9 165.7ZM30.4 175.9C28 173.4 28.4 169.7 31 167.2C33.6 164.7 37.3 164.5 39.7 166.9C42.1 169.4 41.7 173.1 39.1 175.6C36.5 178.1 32.8 178.3 30.4 175.9Z" fill="#FA602D"/>
    <path d="M32.2 155.7L27 159L24.9 155.8L27.5 148.4L26.2 146.4L23.6 153.8C22.1 152 19.7 151 17.1 152.6C14.4 154.4 14.1 156.9 16 159.8L19.9 165.8L33.3 157.2L32.2 155.7ZM20.2 163.3L17.4 158.9C16.1 156.9 16.4 155.4 18.1 154.2C19.9 153.1 21.4 153.5 22.7 155.5L25.5 159.9L20.2 163.3Z" fill="#FA602D"/>
    <path d="M21.4264 135.211L6.58539 140.916L7.26711 142.689L22.1082 136.984L21.4264 135.211Z" fill="#FA602D"/>
    <path d="M19.2 129.1L5.2 132.1L18 123.7L17.6 121.9L2.5 119.4L16.5 116.5L16.1 114.6L0.5 117.9L1.2 121.1L15.4 123.3L3.3 131.1L4 134.3L19.6 131L19.2 129.1Z" fill="#FA602D"/>
    <path d="M16 108.4L9.9 108.5L9.8 103.6C9.7 99.6999 7.9 97.8999 4.8 97.8999C1.7 97.9999 0 99.8999 0 103.7L0.1 110.6L16 110.3V108.4ZM1.8 108.6L1.7 103.4C1.7 101.1 2.5 99.7999 4.8 99.7999C7.1 99.7999 8 101 8 103.3L8.1 108.5L1.8 108.6Z" fill="#FA602D"/>
    <path d="M16.2 95.4L11.6 92.6L12.6 86.2L17.9 85L18.2 83L1.40001 87L1.20001 88.5L15.9 97.5L16.2 95.4ZM10 91.7L4.20001 88.2L10.8 86.7L10 91.7Z" fill="#FA602D"/>
    <path d="M11.1 79.0001C15.6 80.6001 19.9 78.7001 21.2 74.8001C22.3 71.8001 21.5 69.4001 19.9 67.7001L18.4 68.7001C19.7 70.1001 20.4 71.9001 19.6 74.2001C18.6 77.1001 15.2 78.4001 11.7 77.2001C8.00001 75.9001 6.40001 72.8001 7.40001 69.9001C8.20001 67.6001 9.80001 66.6001 11.7 66.3001L11.1 64.6001C9.10001 64.9001 7.00001 66.0001 5.80001 69.4001C4.40001 73.3001 6.50001 77.4001 11.1 79.0001Z" fill="#FA602D"/>
    <path d="M14.6 54.5L26.9 61.5L27.9 59.9001L15.5 52.9001L18.2 48.1L16.8 47.3L10.4 58.4001L11.9 59.3L14.6 54.5Z" fill="#FA602D"/>
</g>
</svg>